<svg viewBox="0 0 32 32" xmlns="http://www.w3.org/2000/svg" fill="#333"><path d="M16 31.625C7.385 31.625.375 24.615.375 16 .375 7.384 7.385.375 16 .375S31.625 7.384 31.625 16c0 8.615-7.01 15.625-15.625 15.625z" fill="#FFF"/><path d="M16 .75C24.409.75 31.25 7.591 31.25 16S24.409 31.25 16 31.25.75 24.409.75 16 7.591.75 16 .75M16 0C7.163 0 0 7.163 0 16c0 8.836 7.163 16 16 16s16-7.164 16-16c0-8.837-7.163-16-16-16z" fill="#E5E5E5"/><path d="M19.869 18.887l1.89-1.478 3.622 4.633-1.891 1.477zm2.644 5.397l-3.621-4.633s-2.361-.553-4.043-2.704c-1.681-2.151-1.647-4.576-1.647-4.576L9.581 7.738s-3.431 4.915 1.951 11.801 10.981 4.745 10.981 4.745zM10.557 6.975l1.89-1.478 3.622 4.633-1.891 1.478z" fill="#3A3A3A"/></svg>