<svg height="30" width="30" xmlns="http://www.w3.org/2000/svg" fill="#333"><path d="M30 6.708c-1.105.491-2.756 1.143-4 1.292 1.273-.762 2.539-2.561 3-4-.971.577-2.087 1.355-3.227 1.773L25 5c-1.121-1.197-2.23-2-4-2-3.398 0-6 2.602-6 6 0 .399.047.7.11.956L15 10C9 10 5.034 8.724 2 5c-.531.908-1 1.872-1 3 0 2.136 1.348 3.894 3 5-1.009-.033-2.171-.542-3-1 0 2.98 4.186 6.432 7 7-1 1-4.623.074-5 0 .784 2.447 3.309 3.949 6 4-2.105 1.648-4.647 2.51-7.531 2.51-.498 0-.987-.029-1.469-.084C2.723 27.17 6.523 28 10 28c11.322 0 17-8.867 17-17 0-.268.008-.736 0-1 1.201-.868 2.172-2.058 3-3.292z"/></svg>