<svg viewBox="0 0 213.504 220.315" xmlns="http://www.w3.org/2000/svg" fill="#333"><path d="M213.504 59.971l-3.338-6.574-125.63 63.785 3.338 6.574 41.036-20.835 24.799 22.409v81.521h-27.388v8.895h74.439v-8.895h-27.388V80.347l40.132-20.376zm-79.82 40.527l20.025-10.167v28.263l-20.025-18.096zm29.856 110.583a4.833 4.833 0 1 1 0-9.666 4.833 4.833 0 0 1 0 9.666zm4.834-123.5a4.833 4.833 0 1 1-9.666 0 4.833 4.833 0 0 1 9.666 0zM62.936 190.879H18.958l7.362-46.25h14.938l-10.569-7H17.697c-1.925 0-3.5 1.575-3.5 3.5s1.575 3.5 3.5 3.5h2.21L8.017 219.32l6.255.996 3.571-22.436H64.05l3.571 22.436 6.255-.996-9.446-59.343-7.169-4.748 5.675 35.65zM97.7 55.046l-2.701 3.388 11.883 9.473 4.623-1.856zm24.294 24.907l7.534 3.235-4.833-6.623z"/><circle cx="163.54" cy="87.581" r="2.234"/><circle cx="163.54" cy="206.248" r="2.234"/><path d="M92.257 105.401l91.46-46.433 1.66 3.27-91.46 46.433zm1.791 104.666c.786 5.202 5.263 8.933 10.369 8.932.521 0 1.051-.038 1.582-.119 5.733-.866 9.68-6.218 8.813-11.951l-9.75-64.5a10.501 10.501 0 0 0-7.047-8.387l-1.928-.646-10.809 18.657 8.77 58.014zM39.757 67.151a8.746 8.746 0 0 1 1.855-6.475 8.811 8.811 0 0 1 5.068-3.133 8.775 8.775 0 0 1 7.297 1.722l24.976 19.859 10.483-4.21-14.286-4.628L56.9 49.314a6.463 6.463 0 0 0-3.057-1.96c-8.569-3.803-18.896-.605-22.689 12.164-3.918 13.182 9.364 19.63-6.394 53.997-4.942 10.778-.833 17.131 5.922 20.382l-.044.1 1.534 1.016 43.007 28.485 18.25-31.5-33.109-18.274-3.929-2.169c.276-6.937 1.284-15.259 3.777-24.88L43.023 73.041a8.736 8.736 0 0 1-3.266-5.89zM18.5 32.71C13.768 51.999 6.48 53.297 1.354 51.664c-5.125-1.633 4.87 11.669 20.35 2.332s14.532-32.274 14.532-32.274c-.015-2.293 3.071-3.704 6-2.755a24.75 24.75 0 0 1 2.817-8.379C35.719 9.773 23.555 12.106 18.5 32.71zm65.544 3.685a7.75 7.75 0 0 1-5.315-9.585c.023-.081.055-.157.081-.237l-3.148-.902c-.021.081-.034.163-.057.244a7.75 7.75 0 1 1-14.9-4.27c.023-.081.055-.157.081-.237l-15.788-4.525a22.616 22.616 0 0 0-.719 6.359c.365 12.454 10.731 22.244 23.148 21.865 6.933-.21 13.039-3.546 17.019-8.618-.135-.032-.268-.056-.402-.094zM66.105.011c-9.391.284-17.266 6.303-20.391 14.606l16.162 4.632c1.858-2.574 5.187-3.845 8.414-2.92 3.228.925 5.378 3.766 5.591 6.934l4.019 1.152c1.858-2.574 5.187-3.845 8.414-2.92.325.093.634.212.937.342C88.865 9.399 78.509-.367 66.105.011z"/><ellipse cx="86.179" cy="28.944" rx="5.875" ry="5.875" transform="rotate(-74.008 86.179 28.945)"/><ellipse cx="68.155" cy="23.779" rx="5.875" ry="5.875" transform="rotate(-74.008 68.155 23.779)"/><path d="M104.927 93.598c.666.216 1.34.318 2.004.318a6.504 6.504 0 0 0 6.183-4.499 6.474 6.474 0 0 0-.368-4.899l-16.004 6.428 8.185 2.652zm16.118-21.896a6.5 6.5 0 0 0-8.455-3.609L78.568 81.758 52.545 61.066a6.5 6.5 0 0 0-8.091 10.175l28.983 23.045a6.502 6.502 0 0 0 6.468.944l37.53-15.074a6.5 6.5 0 0 0 3.61-8.454z"/></svg>