<?xml version="1.0" ?><svg id="Layer_1" style="enable-background:new 0 0 213.504 220.315;" version="1.1" viewBox="0 0 213.504 220.315" xml:space="preserve" xmlns="http://www.w3.org/2000/svg" xmlns:xlink="http://www.w3.org/1999/xlink" fill="#333"><g><path d="M213.504,59.971l-3.338-6.574L84.536,117.182l3.338,6.574l41.036-20.835l24.799,22.409v81.521h-27.388v8.895h74.439v-8.895   h-27.388V80.347L213.504,59.971z M133.684,100.498l20.025-10.167v28.263L133.684,100.498z M163.54,211.081   c-2.669,0-4.833-2.164-4.833-4.833s2.164-4.833,4.833-4.833c2.669,0,4.833,2.164,4.833,4.833S166.21,211.081,163.54,211.081z    M168.374,87.581c0,2.669-2.164,4.833-4.833,4.833c-2.669,0-4.833-2.164-4.833-4.833s2.164-4.833,4.833-4.833   C166.21,82.748,168.374,84.912,168.374,87.581z"/><path d="M62.936,190.879H18.958l7.362-46.25h14.938l-10.569-7H17.697c-1.925,0-3.5,1.575-3.5,3.5s1.575,3.5,3.5,3.5h2.21   L8.017,219.32l6.255,0.996l3.571-22.436h46.207l3.571,22.436l6.255-0.996l-9.446-59.343l-7.169-4.748L62.936,190.879z"/><polygon points="97.7,55.046 94.999,58.434 106.882,67.907 111.505,66.051  "/><polygon points="121.994,79.953 129.528,83.188 124.695,76.565  "/><circle cx="163.54" cy="87.581" r="2.234"/><circle cx="163.54" cy="206.248" r="2.234"/><rect height="3.667" transform="matrix(0.8917 -0.4527 0.4527 0.8917 -22.9044 71.9228)" width="102.569" x="87.528" y="81.981"/><path d="M94.048,210.067c0.786,5.202,5.263,8.933,10.369,8.932c0.521,0,1.051-0.038,1.582-0.119   c5.733-0.866,9.68-6.218,8.813-11.951l-9.75-64.5c-0.589-3.896-3.311-7.136-7.047-8.387l-1.928-0.646l-10.809,18.657   L94.048,210.067z"/><path d="M39.757,67.151c-0.266-2.335,0.392-4.635,1.855-6.475c1.271-1.599,3.071-2.712,5.068-3.133   c2.577-0.544,5.238,0.084,7.297,1.722l24.976,19.859l10.483-4.21l-14.286-4.628L56.9,49.314c-0.843-0.969-1.911-1.621-3.057-1.96   c-8.569-3.803-18.896-0.605-22.689,12.164c-3.918,13.182,9.364,19.63-6.394,53.997c-4.942,10.778-0.833,17.131,5.922,20.382   l-0.044,0.1l1.534,1.016l43.007,28.485l18.25-31.5l-33.109-18.274l-3.929-2.169c0.276-6.937,1.284-15.259,3.777-24.88   L43.023,73.041C41.183,71.579,40.023,69.487,39.757,67.151z"/><path d="M18.5,32.71C13.768,51.999,6.48,53.297,1.354,51.664c-5.125-1.633,4.87,11.669,20.35,2.332s14.532-32.274,14.532-32.274   c-0.015-2.293,3.071-3.704,6-2.755c0.437-2.993,1.407-5.821,2.817-8.379C35.719,9.773,23.555,12.106,18.5,32.71z"/><path d="M84.044,36.395c-4.115-1.179-6.494-5.471-5.315-9.585c0.023-0.081,0.055-0.157,0.081-0.237l-3.148-0.902   c-0.021,0.081-0.034,0.163-0.057,0.244c-1.179,4.115-5.471,6.494-9.585,5.315c-4.115-1.179-6.494-5.471-5.315-9.585   c0.023-0.081,0.055-0.157,0.081-0.237l-15.788-4.525c-0.526,2.027-0.784,4.16-0.719,6.359   c0.365,12.454,10.731,22.244,23.148,21.865c6.933-0.21,13.039-3.546,17.019-8.618C84.311,36.457,84.178,36.433,84.044,36.395z"/><path d="M66.105,0.011c-9.391,0.284-17.266,6.303-20.391,14.606l16.162,4.632c1.858-2.574,5.187-3.845,8.414-2.92   c3.228,0.925,5.378,3.766,5.591,6.934l4.019,1.152c1.858-2.574,5.187-3.845,8.414-2.92c0.325,0.093,0.634,0.212,0.937,0.342   C88.865,9.399,78.509-0.367,66.105,0.011z"/><ellipse cx="86.179" cy="28.944" rx="5.875" ry="5.875" transform="matrix(0.2755 -0.9613 0.9613 0.2755 34.6121 103.8142)"/><ellipse cx="68.155" cy="23.779" rx="5.875" ry="5.875" transform="matrix(0.2755 -0.9613 0.9613 0.2755 26.5199 82.7452)"/><path d="M104.927,93.598c0.666,0.216,1.34,0.318,2.004,0.318c2.742,0,5.292-1.749,6.183-4.499c0.546-1.685,0.364-3.43-0.368-4.899   l-16.004,6.428L104.927,93.598z"/><path d="M121.045,71.702c-1.338-3.332-5.119-4.945-8.455-3.609L78.568,81.758L52.545,61.066c-2.809-2.234-6.898-1.768-9.133,1.042   c-2.234,2.81-1.768,6.899,1.042,9.133l28.983,23.045c1.531,1.218,3.511,1.668,5.387,1.273c0.366-0.077,0.728-0.187,1.081-0.329   l37.53-15.074C120.767,78.819,122.383,75.033,121.045,71.702z"/></g></svg>